<?xml version="1.0" standalone="no"?>
<!DOCTYPE svg PUBLIC "-//W3C//DTD SVG 20010904//EN"
 "http://www.w3.org/TR/2001/REC-SVG-20010904/DTD/svg10.dtd">
<svg version="1.0" xmlns="http://www.w3.org/2000/svg"
 width="133.000000pt" height="133.000000pt" viewBox="0 0 133.000000 133.000000"
 preserveAspectRatio="xMidYMid meet">
<metadata>
Created by potrace 1.14, written by Peter Selinger 2001-2017
</metadata>
<g transform="translate(0.000000,133.000000) scale(0.100000,-0.100000)"
fill="#000000" stroke="none">
<path d="M315 871 l-70 -6 -32 -165 c-17 -91 -32 -184 -32 -207 l-1 -42 45 -6
c24 -4 95 -6 157 -4 99 4 120 7 171 32 92 46 130 115 131 238 0 81 -24 120
-87 143 -48 17 -180 25 -282 17z m210 -57 c17 -13 20 -26 19 -92 0 -42 -6 -97
-13 -121 -15 -51 -69 -111 -100 -111 -25 0 -26 -7 17 208 27 140 34 149 77
116z"/>
<path d="M778 871 c-47 -15 -50 -21 -28 -48 15 -19 17 -30 10 -43 -15 -28 -12
-83 6 -108 18 -27 11 -92 -10 -92 -19 0 -46 -34 -46 -58 0 -13 -12 -28 -30
-39 -16 -9 -30 -21 -30 -24 0 -15 47 -22 152 -21 92 0 114 4 154 23 57 29 86
69 88 119 1 46 -23 75 -101 126 -56 36 -73 68 -54 103 14 25 58 38 74 22 6 -6
12 -30 12 -52 l0 -40 39 3 c31 2 44 9 55 29 18 32 9 69 -21 89 -27 17 -226 25
-270 11z m121 -307 c25 -31 15 -65 -22 -78 -53 -19 -82 56 -35 88 30 21 33 20
57 -10z"/>
</g>
</svg>
